<?xml version="1.0" standalone="no"?>
<!DOCTYPE svg PUBLIC "-//W3C//DTD SVG 20010904//EN"
 "http://www.w3.org/TR/2001/REC-SVG-20010904/DTD/svg10.dtd">
<svg version="1.0" xmlns="http://www.w3.org/2000/svg"
 width="642.000000pt" height="642.000000pt" viewBox="0 0 642.000000 642.000000"
 preserveAspectRatio="xMidYMid meet">
<metadata>
Created by potrace 1.14, written by Peter Selinger 2001-2017
</metadata>
<g transform="translate(0.000000,642.000000) scale(0.100000,-0.100000)"
fill="#000000" stroke="none">
<path d="M1455 4744 c-202 -16 -405 -65 -560 -135 -185 -83 -370 -273 -469
-482 -41 -88 -98 -248 -91 -255 3 -3 171 -36 372 -72 l367 -67 33 75 c99 229
237 312 517 312 376 -1 518 -94 546 -361 16 -154 16 -156 -27 -175 -75 -31
-323 -94 -588 -149 -503 -105 -683 -156 -849 -241 -109 -55 -169 -102 -253
-197 -71 -80 -153 -232 -178 -332 -43 -169 -38 -363 15 -542 94 -312 395 -553
759 -605 128 -18 368 -16 474 5 235 47 492 179 669 345 33 31 49 40 53 31 2
-8 23 -73 44 -145 22 -72 45 -143 50 -158 l11 -26 405 0 405 0 -16 38 c-59
134 -122 328 -138 422 -23 141 -28 321 -27 990 2 756 -4 899 -41 1070 -34 160
-84 254 -185 351 -191 183 -428 271 -803 299 -123 9 -397 11 -495 4z m722
-1891 c-8 -268 -17 -326 -67 -428 -135 -280 -550 -428 -818 -291 -68 35 -149
120 -184 193 -95 199 -21 406 177 498 84 40 184 67 500 139 132 30 274 66 315
79 41 14 77 25 79 26 2 1 1 -97 -2 -216z"/>
<path d="M3520 4339 l0 -341 730 8 c459 4 730 4 730 -2 0 -6 -18 -28 -41 -49
-23 -22 -114 -121 -203 -220 -169 -189 -215 -241 -785 -895 -194 -223 -385
-441 -425 -484 -39 -44 -83 -95 -99 -114 l-27 -35 2 -316 3 -316 1385 0 1385
0 3 354 c2 277 -1 356 -10 363 -32 20 -1431 6 -1625 -17 -30 -3 -43 -1 -43 8
0 6 46 62 102 122 56 61 143 155 193 210 51 55 171 190 266 301 96 110 215
247 265 305 49 57 193 223 319 369 126 146 278 321 337 389 l108 124 0 288 0
289 -1285 0 -1285 0 0 -341z"/>
</g>
</svg>
